<?xml version="1.0" encoding="UTF-8"?>
<svg id="Layer_1" data-name="Layer 1" xmlns="http://www.w3.org/2000/svg" xmlns:xlink="http://www.w3.org/1999/xlink" viewBox="0 0 381.38 390.56">
  <defs>
    <style>
      .cls-1 {
        filter: url(#drop-shadow-2);
      }

      .cls-2, .cls-3 {
        fill: #fff;
      }

      .cls-4 {
        filter: url(#drop-shadow-1);
      }

      .cls-5, .cls-6 {
        fill: #d4af37;
      }

      .cls-3 {
        filter: url(#drop-shadow-3);
        font-family: BebasNeue-Regular, 'Bebas Neue';
        font-size: 104.33px;
      }

      .cls-6 {
        filter: url(#drop-shadow-4);
      }
    </style>
    <filter id="drop-shadow-1" x="29.43" y="-8.44" width="276" height="260" filterUnits="userSpaceOnUse">
      <feOffset dx="7" dy="7"/>
      <feGaussianBlur result="blur" stdDeviation="5"/>
      <feFlood flood-color="#000" flood-opacity=".75"/>
      <feComposite in2="blur" operator="in"/>
      <feComposite in="SourceGraphic"/>
    </filter>
    <filter id="drop-shadow-2" x="-8.57" y="56.56" width="412" height="198" filterUnits="userSpaceOnUse">
      <feOffset dx="7" dy="7"/>
      <feGaussianBlur result="blur-2" stdDeviation="5"/>
      <feFlood flood-color="#000" flood-opacity=".75"/>
      <feComposite in2="blur-2" operator="in"/>
      <feComposite in="SourceGraphic"/>
    </filter>
    <filter id="drop-shadow-3" filterUnits="userSpaceOnUse">
      <feOffset dx="7" dy="7"/>
      <feGaussianBlur result="blur-3" stdDeviation="5"/>
      <feFlood flood-color="#000" flood-opacity=".75"/>
      <feComposite in2="blur-3" operator="in"/>
      <feComposite in="SourceGraphic"/>
    </filter>
    <filter id="drop-shadow-4" x="57.43" y="82.56" width="172" height="249" filterUnits="userSpaceOnUse">
      <feOffset dx="7" dy="7"/>
      <feGaussianBlur result="blur-4" stdDeviation="5"/>
      <feFlood flood-color="#000" flood-opacity=".75"/>
      <feComposite in2="blur-4" operator="in"/>
      <feComposite in="SourceGraphic"/>
    </filter>
  </defs>
  <g class="cls-4">
    <path class="cls-5" d="M208.14,8.81c12.87,5.17,25.76,14.35,35.96,23.63.68.72.39.99-.51.51-1.28.34-2.9-1.19-3.08-2.57l-2.56-.84C211.75,8.18,175.2-1.51,141.83,3.94c-16.3,2.66-29.7,9.33-43.55,16.92l-1.61-.23c-.29-.15-.29-.33,0-.51C130.53-1.51,170.31-6.37,208.14,8.81Z"/>
    <path class="cls-5" d="M96.67,20.63l-1.44,2.15c-8.38,6.17-16.19,13.02-23.44,20.56l-1.32.4c-.58.62-.96,2.11-2.05,1.03,8.91-10.65,16.55-17.18,28.25-24.66v.51Z"/>
    <path class="cls-5" d="M95.65,33.47l-.43-.9c-4.08,2.71-9.34-1.06-2.76-2.02,4.83-2.84,9.94-5.24,15.34-7.18.52-.06,3.8,2.45,2.75,3.43,1.75.34.89,2.21-.61,2.6.5,1.77,1.7,1.35,2.16,1-.73-1.92,3.42-1.54,4.14-.84,2.1,2.08,1.76,5.31-1.05,5.97,2.36,1.85-2.67,3.77-4.02,1.18-1.17,2.35-2.29,3.35-4.71,4.15-.1,2.32-.99,3.72-2.68,4.23-.8,5.98-4.57,2.77-6.61-.65-2.15,1.26-4.02,3.13-5.61,5.58-6.43.3-7.97,2.62-4.62,6.95,5.08,1,11.01,6.14,10.47,11.78.32.22,1.83.02,2.24-.15.69-.29,4.36-8.77,3.8-10.53.17-1.29,1.3-1.93,3.41-1.92l.09-1.34c-2.08-1.84-2.39-3.28-.93-4.33-.28-2.03-.12-3.8,2.23-4.18-.39-.85-.57-1.35.28-2.05-.32-1.66,4.43-1.09,3.22.15l.37,1.91c1.45-.46,2.13.64,2.05,3.31,1.23.66,1.7,1.45,1.4,2.38,1.46.35,2.19,1.02,2.2,2.02,1.09.5.94.9,0,1.54.54,1.91,1.89,2.12,2.52.22.24.51.58.82,1.08.81,1.09.52,1.43-.1,1.47-1.16-1.12-3.07,3.11-3.17,5.21-2.95.78,1.32,1.25,3.42,3.09,3.09-1.25.53-.2,5.42.01,5.62.28.26,2.36-.18,2.55.02.21.22.15,5.22.62,6.06.14.25,2.66,1.51,2.96,2.42-2.41,1.07-.93,1.36-1.02,1.8-.83.57-3.16,1.56-3.86,1.5-1.22-1.09-2.64-1.09-2.89.64l-1.47.95c-1.26.34-3.71,1.89-4.45,1.95-.97.07-1.59-1.06-2.85-.82-.73.14-6,3.01-6.35,3.48s.65,1.12.57,2.11c-.25,3.13-1.98,5.41-3.91,7.36-.62.63-.88,1.7-1,1.83-.55.57-.6-1.77-1.78-1.53-1.06.39-1.05,2.07-1.42,2.43-.4.39-1.77.28-2.48.9-.15.13-.39,2.28-1.51,3.6-.78.93-4.08,3.36-4.48,3.99s-.16,1.98-.61,2.64c-.33.49-1.3.11-1.64.6-.46.68-.26,2.11-.96,3.06-.16.22-3.24,3.63-3.47,3.86-.75.73-2.47.8-3.19,1.81-1.41,1.96.34,3.38.39,5.08.02.81-.92,3.93-.43,4.39.21.2,1.97-.28,2.51.06s.14,3.27.57,4.05c-2.97.7-1.84-1.7-3.56-3.37-1.22-1.19-4.02-1.57-4.93-2.79-.42-.56,3.49-3.38-1.04-4.08-4.12-.63-12.36-.12-15.33,3.09-.69.75-1.28,2.09-1.85,3.04-1.6,1.08-2.54-.08-1.51-1.71-1.45-2.34-.65-4.78,2.25-3.65l.39-1.27c3.87.36,3.66-1.74,3.01-4.91-.12-.56-.78-1.65-1.22-1.05-1.59-.39-5.67-1.81-4.77-3.66l-2.6-1.68c-2.69.98-4.52-.25-5.93-2.79l-1.66-.13c.82,2.5-.65,4.75-3.27,3.43-1.25.73-2.7,1.08-3.19-.56.44-1.62,1.25-3.15,1.48-4.94.07-.55.48-2.34-.45-2.25-7.02,18.71-8.17,36.87-4.63,56.5,1.16,3.99,5.24,11.47,6.13,15.36-.9-.33-2.03-1.68-4.38-5.26-9.1-13.87-7.2-55.89.29-77.14,5.27-14.94,13.58-28.81,23.64-40.83.64-.33,1.33-.67,2.05-1.03,1.24-.44,2.43-1.21,3.56-2.32,1.74,1.12,3.56.74,5.43-.14l1.18.15c.6,1.3,3.68,1,3.84.82.68-.72,2.55-6.38,2.08-7.26.63-2.24,3.95-2.21,3.9.4l1.07.64.56-.57c3.45,0,4.63-.67,3.55-2Z"/>
    <path class="cls-5" d="M237.49,214.28c-4.41,3.25-8.96,6.45-13.86,9-4.5,2.34-10.02,4.75-14.91,5.89,1.26-1.26,3.08-2.01,4.44-3.26,6.33-5.78,10.86-13.72,15.17-21.04.78-1.32,1.35-3.79,2.13-4.8,1.18-1.52,2.14-.78,2.12-3.67l1.3-1.64c-.64-.93,2.11-5.63,2.85-6.67.51-.7.68-1.13.79-1.59.23-.94-.05-4.07-.05-4.07,10.26-4.71,20.23-10.28,29.95-16.03,1.81-1.07,5.24-3.87,6.78-4.52.3-.13.87-.09.76.25-2.56,6.33-5.47,12.26-8.73,18.24,0,0-8.36,17.57-28.77,33.9Z"/>
    <path class="cls-5" d="M46.33,101.45c2.01.55,2.64-.45,3.86-1.03.4-.19-.05,1.45,1.01,1.02.65-.26,1.1-1.68.78-2.05-.22-.26-2,.68-1.54-1.03,2.22.36,1.26-.53,1.79-2.05.79.08,1.3,1.42,1.39,1.46.49.21,1.23-.5,1.4-.4.1.06.61,1.79,1.04,2.2.7.66,2.02-.18,1.57,1.88,3.77-2.94,4.16,1.29,7.19,1.03l-1.54,2.05c1.58-.92,3.62,1.43,3.84,1.43,1.28,0,1.13-2.86,2.58,1.65l.77-2.05,2.04,1.03c.18.98-1.04.2-1.46.61-.35.35.54,1.95-1.63,1.45.97,1.18.65,3.05,2.57,2.57-.09,1.13-1.16.5-1.42.68-1.12.78-1.75,2.77-4.22,1.37,1.52,4.07-1.9.82-2.57,1.54-.52.57-.06,2.84,1.54,2.06-.01.56-3.12,2.62-.52,2.56-.32.54-.99.96-1.03,1.03-.89.84-1.23,2.04-1.03,3.6.36,1.74,1.23,4.98,1.45,6.52.1.67-.9,1.14-.85,1.86.13,2,3.46,5.97,5.73,5.5.18-.04.75-1.82,2.4-1.05-.57-1.25-2.05-1.85-1.07-3.34,1.26-1.93,2-.66,2.81-.76.5-.06.43-.97.81-1.25.33-.24,1.01.27,1.04.22.42-.69-.97-2.24,2.06-2.86s4.44,4.85,1.36,4.29c-.76-.14-1.54-2.1-2.14-.93-.18.36-.73,4.29-.66,4.78.38,2.83,3.3,1.3,5.02,2.69,1.53,1.25.49,2.17.53,2.3-2.33-1.6.02,4.02.13,4.24.51,1.12,2.62,3.49,2.87,4.36.56,1.92-1.7,4.85.6,6.81.7.73.42,1-.51.51-1.6-.96-4.01-1.48-5.15-3.32-.81-1.3-.7-2.91-1.33-4.33-.16-.35-3.05-3.82-3.28-3.94-.65-.33-1.82.48-2.97-.05s-.29-1.89-1.12-2.51c-2.17-1.62-10.87.18-14.65-4.39-1.6-1.93.76-4.97.65-6.29-.19-2.25-3.86-6.12-4.29-8.04-.22-.97.35-1.76.29-2.58-1.78-1.42-3.03-2.71-2.57-5.14,0-.17,0-.34,0-.51.31-.61.51-1.28.34-1.97-2.3-3.25-3.43-6.73-3.34-10.7,3.65-.48,3.45-.2-.59.86-1.22-.93-.29-2.52,0-3.6Z"/>
    <path class="cls-5" d="M88.46,158.29c2.38-2.55,2.07-5.85,5.69-6.9,1.99-.58,3.12.08,5.07.24l.06,1.26c-2.89,11.14-7.4,22.12-8.25,33.65-5.79-1.76-1.01-5.74-1.1-6.83-.11-1.34-2.54-3.44-2.45-5.25.02-.32,2.66-4.87,3.12-5.58.37-.59,1.35-.71,1.48-1.19.44-1.64-.74-3.06-1.04-4.77-.84-.3-1.13-1-.84-2.1-1.93-.15-3.08-.72-1.72-2.52Z"/>
    <path class="cls-5" d="M98.22,141.34l3.07-.76c-.18-1.81-3.15-2.51-3.47-2.95-.4-.55-.35-3.15-.68-3.43-.23-.2-4.08-.14-4.72.05-.96.28-1.77,2-2.9,2.25-.63.14-1.17-.75-1.84-.81-.88-.07-1.71.59-2.47.53-1.72-.14-1.91-5.04-.56-5.16,1.05-.1,3.57.58,2.79,2.07.1.15,2.06-1.24,2.54-1.32.65-.1,1.04.67,1.7.66,2.37-.05,5.03-.39,7.48-.31,1.02,3.03,2.76,6.01,3.17,9.19-1.03,1.26-3.12,1.45-4.11,0Z"/>
    <path class="cls-5" d="M240.5,30.39c.56,1.53,5.53,6.33,3.08,2.57l.51-.51c3.74,3.41,7.51,6.93,10.79,10.79.68.72.39.99-.51.51l-.67.02c-1.93-2.71-1.42-1.89,1.53,2.46,4.88,4.03,1.12,5.01-2.97,2.92-1.1.94-2.51,1.33-4.23,1.15-1.91,2.51-5.97,2.37-3.96-1.25-1.59-.59-1.96-2.3-2-3.84-2.1.35-2.45-1.17-1.06-4.56-.52-1.42.06-1.69,1.03-.51.9.19,1.24.02,1.03-.51-1.82-.08-3.7-.88-5.64-2.39l-1.1,2.32c1.57,1.03,2.1,2.08,1.6,3.16,3.01,1.13-.09,4.36-1.03,1.54-1.15-.31-1.97-.91-3.08-1.02l1.02,2.04c-1.5.5-5.2,2.33-5.79,3.74-1.01,2.37,1.57,6.4,1.17,8.82-.15.91-3.4,6.66-3.6,4.66.05-.9.07-3.82-.62-4.26-.4-.25-1.33,0-1.92-.36-.65-.39-.81-1.7-1.56-2.06-1.61-.78-4.43.35-4.68-3.07-.03-.36.27-4.19.36-4.39.66-1.66,3.61-1.46,3.8-2.3.26-1.13-2.38-2.16-2.98-3.17-1.79-3.05.37-2.56,1.72-4.24s1.01-3.04,3.62-4.08c2.9-1.16,4.68.43,7.4-1.09l-1.54-3.58,2.05-.78c0-.96-14.46-9.02-16.43-10.02-6.17-2.86-12.51-4.74-19.01-5.65-.97-.23-2.13-.83-3.08-1.03-4.33-1.21-8.78-2.07-13.36-2.57-3.56.11-7.16.29-10.79.51-1.46.84.95.2,1.06.78.45,2.53-1.09,2.41-1.09,2.57,0,.86,1.64,3.83,1.06,5.38,2.45-.56,4-.98,6.68-.51.57.54-1.98,8.34-1.33,10.28.54,1.64,2.12,1.63.7,4.24-1,1.85-2.21,1.34-3.44,2.21-1.11.79-5.14,5.54-4.67.72-.29-.29-4.98.97-5.61,1.32-1.93,1.07-.01,1.51-.12,2.44-.18,1.54-2.87,2.5-3.29,3.45-.56,1.3,1.29,3.07-1.5,4.65-1.33.75-1.76-.05-2.86.18-3.35.71-4.04,3.51-7.44-.22-1.1-1.21-4.42-7.19-4.37-8.47.01-.29,1.92-.42,2.61-1.52,1.07-1.69.35-5.63,3.56-5.43-1.88-2.42-4.28-2.9-4.6-6.48s3.42-4.04,2.21-6.37c-2.18-4.23-5.79-3.4-9.43-3.07-5.81.2-11.63,1.23-17.46,3.08-.89.33-1.8,1.25-3.08,1.03.48,1.01,2.35,1.43,2.84,2.59.44,1.01-.21,1.6-.28,2.54l1.55-2.05c1.46.21,1.66,1.56,2.57,2.3s4.71,3,5.17,3.56c.59.72.48,2.05.99,2.88-.12,1.49-.29,3.04-.51,4.62-1.41,1.6-1.52,2.61-2.05,4.62.89,2.31-3.27,4.4-5.14,5.14,0,.9-.55,1.33-1.67,1.28.21,1.57-.51,2.7-1.93,1.8,1.35,1.21-2.73,1.78-3.05,1.6-3.03-1.7-1.44-5.48-.33-7.49,3.09-3.68,3.02-6.52-.21-8.5l-1.03-2.05,2.05,1.02c-.04-.94,1.17-3.09-.51-2.83-1.12.17-1,1.19-1.07,1.23-.6.38-1.63-.48-1.49-1.22.19-1.07,4.23.25,2.57-1.29-.24-.22-3.19-.68-3.6,0-1.42.8-1.78-.04-1.09-2.51l-.45-1.09c-.47-.29-2.31-1.96-2.8-2.55-3.55,1.91-7.34,3.28-11.02,4.91-2.16.96-3.83,3.5-6.73,2.27,1.65,3.37,4.12-1.27,7.19.51l-1.54,1.54-.23,1.18c-1.4.48-2.69.95-3.88,1.39-.79.06-2.01,2.1-3.09-.51l1.54-1.03h-2.56s1.02,2.56,1.02,2.56l-1.53-.51c1.14,2.72-1.23,3.67-1.54,6.16.19.17,2.13-1.13,2.83.52s-4.11.4-4.88-.51l-.26,2.05c-1.53-.68-2-2.73-3.86-2.56-.16.11,1.83,1.74.25,2.05-.24.05-1.84-3.36-3.59,0-2.66-4.24-2.84-.02-3.35.52-.9.96-1.05-1.63-2.05-1.03,7.92-8.46,16.38-17,26.2-23.12,3.35-2.09,7.6-4.08,10.71-5.58,1.3-.63,3.12-2.05,4.23-2.37,2.97-.87,3.64-1.68,6.72-3.01,38.83-16.8,90.88-6.79,122.18,20.73Z"/>
    <path class="cls-5" d="M274.92,77.13c3.84,10.23,6.03,21.5,7.19,32.36-.24,1.64-1.24,1.11-1.73-.73-1.5-8.01-2.8-15.98-3.92-23.92l-1.57-1.53c-4.69-13.23-11.15-26.65-19.9-37.56-.47-.58-.66-1.26-.62-2.01l.51-.51c8.16,9.61,15.6,22.1,20.03,33.9Z"/>
    <path class="cls-5" d="M276.46,88.84c2.52,8.13,3.79,16.55,5.11,24.95l.54-.29c.17,1.54,1.05,3.65.43,5.57-4.14,2.46-8.69,3.43-10.44,8.31-.3.85-1.26,4.62-1.03,5.15.78,1.8,3.73.02,3.33,2.02-4.49,1.86-9.97,3.36-14.22,5.56-15.03,7.8-27.19,17.17-43.57,24.23-1.53.66-12.51,5.55-13.07,5.13-.15-.11-1.54-3.18-1.57-3.37-.04-.25.06-4.73.11-4.98.23-1.16,7.77-9.85,9.23-12.36,3.47-5.95,6.63-14.79,7.1-21.67.24-3.56.41-7.38.54-10.77.12-3.04.09-6.16-.46-9.17.3-1.28,2.07-1.13,2.73-1.92.37-.44.35-1.46.76-1.81,1.26-1.04,2.87,1.61,4.28,1.69,2.42.14,3.97-1.62,5.76-2.93l1.56,3.08,4.6-2.06c.88.6.61,1.57.98,2.42.08.19.84.18.81.39-.06.51-.86,1.56-.96,2.63-.72,7.29,1.94,3.48,3.46,4.38.41.24,2.11,3.83,3.41,4.59.68.4,2.51.89,3.27.9,1.51.03,6.69-2.05,8.02-1.96.36.03,5.89,1.31,6.15,1.5.44.32.15,2.22,2.73,2.51,4.93.55,1.16-3.3,2.65-5.25.61-.79,2.61.82,2.66-2.65.02-1.29-.66-1.43-1.57-2.27.05-.84.3-1.14,1.05-1.25-1.25-2.76-2.78-5.57-4.97-1.84-1.02.14-1.98.02-2.04-1.07-2.89-.51-4.96-3.14-1.03-3.91,0-1.63,1.57-5.15,3.78-3.88-.34-.35-.47-.82-.38-1.41-1.15-1.6,1.15-1.78,2.55-1.28,1.36-4.16,3.48-.38,4.15,2.12.32-1.1.82-1.88,2.03-1.36l.23-.8c-2.1-.96-1.58-2.67.31-3.59-.95-2.58-.61-3.68,1-3.32Z"/>
    <path class="cls-5" d="M241.02,40.66c.68.84-.4,3.09,0,3.59.9,1.14,1.04-1.99,2.05-1.02.22.21-.69,5.35,2.08,4.89.22,1.27-.49,1.85-1.05,2.81,2.21.41,2.62-1.07,3.49-1.53s3.75.18,3.69-.77c0-.11-1.18-1.65-1.43-1.79-1.46-.82-7.09,1.14-3.44-2.57.74.18.33,2.06,1.03,2.03,1.52-.05-.55-2.42,1.02-2.03,1.1.27,2,2.74,3.92,3.79s6.91,2.32,3.38-.3c-2.4-1.77-.92-.82-1.57-2.13-1.76-3.6-4.05-4.49-6.49-7.53,1.36-.29,1.12.09,1.7.63,1.59,1.49,3.57,3.39,4.98,5.01,9.45,10.91,17.82,27.33,22.09,41.09-1.27.98.34,2.63-.04,3.79-.23.7-1.39.74-1.51,1.09-.75,2.19,2.34.39,1.55,2.56-.37,1.01-1.47.22-1.54.26-.68.95-1.35.67-2.09-.14l-3.77-5.5c-3.06-.05-5.02-.85-7.81-2.09-3.47,1.1-4.05,2.42-3.33,6.18l-.98,1.04c.19.16.36.33.45.53.39.92-.69-.24-.02-.31.37-.04,1.92,2.31,2.15,2.86-.59.8.27,1.14,2.57,1.03l-.19-1.55c-1.7-.82.48-3.37,1.73-1.53.29-1.58,1.88-1.38,2.57,0,.73-.37,2.11,2.16,2.05,2.3-.73,1.81-2.16-.38-2.81-.25-1.51.3-.06,2.82-.27,3.09l-2.05-1.02,2.56,2.82c-1.67,1.91-1.25.02-2.16-.41-.75-.35-1.96-.33-1.93.41.05,1.15,4.03.69,3.08,2.83,1.07-.14,1.7-2.42,2.35-2.56.17-.04,3.05,1.02,3.19,1.12.56.4.62,3.91,2.68,3.49l-.26-1.03c3.42,1.38-.89,2.38-2.83,2.57-2.45-2.26-4.63-2.19-7.54-3.5-2.59-1.17-5.88-3.67-7.87-4.2-1.56-.28-2.93-.51-4.46.09-.35-2.01-.57-4.09-.68-6.25-1.04-1.21-1.85-2.83-2.42-4.87-1.34-1.05-2.24-2.17-2.71-3.35l-3.86.42c.2.55-.05,1.09-.76,1.63l.98.94c2.78-1.89,7.39.39,6.72,3.68,1.33,2.23.44,3.44-2.46,2.42,2.47,1.44,2.09,4.66-.62,3.23-1.05-.89-1.74-1.06-2.05-.51-.51,1.39-1.63.93-1.54-.51,1.15-2.32-.69-1.55-1.37-2.23-2.08-2.06-1.01-4.68-4.41-4.86-1.13-.06-2.15.94-2.62.86-.94-.17-1.7-2.37-2.93-2.28-1.87.13-.86,2.2-1.11,2.73-.07.14-.68.23-.88.53-2.43,3.71-1.25,1.77-3.64,2.38-4.2,1.07,1.72,5.37-3.06,5.43l1.03-1.53c-2.59-.13-3.77,5.89-5.86,5.68-1.01-.1-3.44-8.4-4.17-9.27-.49-.58-1.64-.63-2.34-1.26-6-5.4,3.37-3.34,5.06-5.04.18-.18,1.65-4.52,1.65-4.77-.05-2.84-5.94-3.24-7.17-4.1-2.74-1.91,3.38-1.72,3.82-1.82.67-.15,5.52-2.02,5.91-2.32,1.41-1.09.2-2.21,1.01-3.57.96-1.6,2.83-1.69,4.13-2.58.86-.59,2.23-2.6,2.92-2.73s3.72,2.2,5.08-.05c.23-.38-.87-2.13.49-1.56,1.28.54,5.31,3.94,5.65,3.97.96.08,4.26-3.64,4.61-4.51.67-1.68.35-6.45-1.26-7.43-2.85-1.75-4.94,4.33-8.38,2.23-1.68-1.02-.28-1.81-.41-3.19-.18-1.85-.88-3.26-1.49-4.94,1.11.66,1.88-.46,2.84-.5,2.17-.08,3.65,2.04,3.73-1.81.02-.88-.57-1.86-.41-2.83,1.67.45,1.59.3,1.03-1.54,1.11-.34,1.72-.98,1.84-1.92l1.24-.14Z"/>
    <path class="cls-5" d="M207.24,58.48c.85.4,1.46.06,2.46.91,1.25,1.06,1.28,3.29,2.03,4.13,1.72,1.9,4.53-.42,4.37,3.61-.13,3.28-4.97,4.51-7.61,3.85-.53-.13-.91-2.22-2.73-2.43-2.58-.3-3.4,1.91-3.61,1.95-.84.14-3.02-1.05-4.29-.56l3.46-2.96c1.48.08,3.57-.96,4.91-.56,1.19.35,1.23,1.97,1.69,2.01.35.03,2.36-.74,2.57-1.04,1.43-2.03-5.03-6.87-3.89-9.77.81-.23.33.72.64.86Z"/>
    <path class="cls-5" d="M190.67,41.18c.18,1.2-.19,1.59-1.05,2.29-.79.64-7.36,3.88-7.95,3.87-2.61-.06-1.17-3.19-1.48-3.61-.55-.73-4.42-.79-4.41-1.78.01-1.48,3.79-1.24,4.76-1.39.62-.1,1.23-.78,1.75-.84,1.34-.15,1.66,2.22,2.53,2.43.69.17,4.36-1.76,5.85-.96Z"/>
    <path class="cls-5" d="M244.1,97.12c.08.21-.16.81.04.97.99.78,3.32-1.53,4.21.71.85,2.13-.77,2.91-2.71,2.43-1.37-.7-3.08-1.99-4.62-2.57-.19-.67.15-1.35,1.03-2.05-.43-1.01-.34-1.8,1.27-1.54.72.52.47,1.22.79,2.05Z"/>
    <path class="cls-5" d="M215.85,19.09c-6.28-2.33-12.49-4.12-19.01-5.65.49-.96,1.74-.35,2.48-.18,6.14,1.4,11.24,3.16,16.52,5.83Z"/>
    <path class="cls-5" d="M193.76,12.41c-4.25-.88-9.04-1.73-13.36-2.05-.45-.15-.44-.32,0-.51,3.45.21,7.79.81,11.07,1.52.86.19,1.78.16,2.29,1.05Z"/>
    <path class="cls-5" d="M137.77,16.52c-6.02.55-11.51,2.24-17.46,3.08,3.61-1.34,10.29-3.05,14.19-3.53.96-.12,2.6-.44,3.28.45Z"/>
    <path class="cls-5" d="M180.4,9.84v.51c-3.49-.26-7.2.19-10.79,0,3.16-.8,7.48-.71,10.79-.51Z"/>
    <path class="cls-5" d="M243.58,33.42c1.07,1.08,2.1,2.42,3.08,3.59-.97.11-2.49-.66-3.1-1.31-.44-.47-.01-1.06-.11-1.16-.8-.85-3.71-.73-2.96-3.69.93.82,2.24,1.72,3.08,2.57Z"/>
    <path class="cls-5" d="M243.07,39.63c.32.23,1.44,1.14,1.54,1.03-.26-.63-.86-1.65,1.54-2.05l-1.03,3.08-3.08-1.54c.37-.12.85,0,1.03-.51Z"/>
    <path class="cls-5" d="M269.78,104.3c-2.77,1.06-3.63.26-2.56-2.56.67.15,3.18,1.71,2.56,2.56Z"/>
  </g>
  <g class="cls-1">
    <path class="cls-2" d="M83.18,231.88c0-.13,3.69-16.76,3.65-16.96-5.51-.04-36.08-.36-44.35-1.85-7.9-1.92-14.72-4.98-20.46-9.17-1.13-.74-2.82-2-3.92-2.85-1.67-1.63-5.21-7.26-6.08-8.67-3.59-7.87-1.91-15.77.65-23.64,4.55-11.49,11.42-21.58,19.2-31.08-.56-.59-4.28,2.93-4.9,3.5-30.09,27.73-43.74,71.26,6.26,86.2.18.05.34.1.52.15,1.99.55,4.06.93,6.07,1.35,11.54,1.77,23.32,2.78,35.33,3.02,2.81.14,5.38-.19,8.04.01Z"/>
    <path class="cls-2" d="M381.38,68.6c-.02,4.11-2.56,7.43-5.46,10.19-8.39,8-17.54,15.73-26.74,22.5-1.88,12.52-3.62,24.95-5.23,37.3-.24,2.12-4.23,7.37-5.15,4.33-1.43-9.17-3.45-18.13-6.08-26.89l-1.4-.24c-7.53,5.87-15.01,11.8-22.45,17.79-.28.78-.48,1.57-.6,2.38-.33,2.23-.45,7.69-1.22,10.75-.3,1.21-1.92,1.43-2.56.36-1.81-3.04-5.64-8.64-6.64-8.08-7.63,5.42-46.37,30.5-52.01,33.37-13.45,7.7-27.34,15.35-41.79,20.77-.83-2.63,6.1-9.54,6.1-9.54-.34-1.75-10.43-1.95-11.77-3.12,2.06-.16,3.8-1.33,5.65-2.06,27.97-11.04,53.15-22.65,78.85-38,2.15-1.29,9.57-5.6,10.53-7.2-.39-.62-.94-1.13-1.61-1.44-2.83-1.32-5.79-2.31-8.86-2.97-1.16-.25-1.41-1.76-.39-2.36,5.02-2.91,10.54-4.71,16.69-4.71.99,0,2,.04,3.03.14l20.55-16.03c.07-.31.04-.64-.09-.99-11.58-3.14-23.09-6.41-34.56-9.83-.65-1.21,5.14-4.16,6.76-3.99,14.32.67,29.49,1.77,43.82,2.39l6.03-4.71c7.27-6,14.57-13.21,21.87-19.21.02-.02.04-.03.05-.04,3.5-2.38,13.85-7.91,14.68-.86Z"/>
  </g>
  <text class="cls-3" transform="translate(128.07 346.94)"><tspan x="0" y="0">BARQ</tspan></text>
  <path class="cls-6" d="M206.85,127.14c2.34-22.37-4.69-33.68-31.06-35.27-13.5-.81-27.01-.45-40.52-.02-5.68-.32-11.25-.05-16.7.82-.17-.03-.47.05-.51,0-1.63,6.09-2.7,12.35-4.11,18.49-.02.06-.04.14-.06.19-.12.34-11.19,47.44-11.36,48.21-3.81,17.25-22.83,104.48-27.25,120.2-2.76,9.81-5.57,19.6-9.1,29.16,2.49-.25,45.39-50.73,47.57-50.8,9.7-.3,19.98.4,29.72.49,18.87.17,31.78-13.72,31.94-13.85,13.74-11.51,24.39-37,19.18-54.66-.92-3.09-1.19-3.65-4.87-8.82-3.05-4.28-8.19-6.77-13.26-8.13.33.06,25.51.6,30.39-46.01ZM143.75,233.93c-2.01,1.47-4.81,2.27-6.67,2.57-9.24.41-18.49.59-27.74.51,0,0,19.23-23.24,22.81-25.48,1.06-.67,2.15-1.29,3.28-1.83,1.94-.92,4.56-2.55,2.21-3.03l-11.37,2.69c-.59.25-1.14-.32-1.44-.84l4.15-17.44c.4-1.68.81-3.16,1.42-4.92,0,0,16.9-.38,23.84,2.54,2.05.96,2.95,1.35,4.46,2.49,1.59,1.11,2.59,3.61,3,5.47,2.96,13.7-6.53,30.12-17.95,37.27ZM172.43,141.83c-3.94,23.21-21.42,16.7-35.15,18.62.18-1.49,2.29-8.6,2.48-9.43,2.24-9.05,4.48-18.23,6.42-27.37.76-3.58,3.57-6.36,7.14-7.15,4.43-.97,10.4-1.24,14.73,2.6,7.58,6.72,4.42,22.42,4.37,22.74Z"/>
</svg>